<svg xmlns="http://www.w3.org/2000/svg" xmlns:xlink="http://www.w3.org/1999/xlink" viewBox="0 0 46 50" version="1.1" x="0px" y="0px"><title>to_right</title><desc>Created with Sketch.</desc><g stroke="none" stroke-width="1" fill="none" fill-rule="evenodd"><g transform="translate(-129.000000, -1330.000000)" fill="#000000"><path d="M167.514719,1352 L153.715729,1365.79899 C152.93468,1366.58004 152.93468,1367.84637 153.715729,1368.62742 C154.496777,1369.40847 155.763107,1369.40847 156.544156,1368.62742 L173.757359,1351.41421 C174.147884,1351.02369 174.343146,1350.51184 174.343146,1350 C174.343146,1349.48816 174.147884,1348.97631 173.757359,1348.58579 L156.544156,1331.37258 C155.763107,1330.59153 154.496777,1330.59153 153.715729,1331.37258 C152.93468,1332.15363 152.93468,1333.41996 153.715729,1334.20101 L167.514719,1348 L131,1348 C129.895431,1348 129,1348.89543 129,1350 C129,1351.10457 129.895431,1352 131,1352 L167.514719,1352 Z"/></g></g></svg>