<svg xmlns="http://www.w3.org/2000/svg" xmlns:xlink="http://www.w3.org/1999/xlink" version="1.1" x="0px" y="0px" viewBox="0 0 100 125" enable-background="new 0 0 100 100" xml:space="preserve">
<path fill="#55595c" d="M73.77,73.408c0,0.584-0.473,1.057-1.057,1.057H26.699c-0.582,0-1.057-0.473-1.057-1.057V27.395  c0-0.582,0.475-1.057,1.057-1.057h31.668v-8.449H26.699c-5.242,0-9.506,4.264-9.506,9.506v46.014c0,5.242,4.264,9.508,9.506,9.508  h46.014c5.242,0,9.508-4.266,9.508-9.508v-30.4H73.77V73.408z M35.416,40.475l-5.502,6.412l17.527,15.039l35.365-39.182l-6.275-5.66  l-29.84,33.063L35.416,40.475z"/>
</svg>