<svg xmlns="http://www.w3.org/2000/svg" viewBox="0 0 32 40" x="0px" y="0px"><title>layer layers server map</title><g><path d="M27.48,21.12,25.42,20l-8.94,4.88a1,1,0,0,1-1,0L6.58,20,4.52,21.12a1,1,0,0,0,0,1.76l11,6a1,1,0,0,0,1,0l11-6a1,1,0,0,0,0-1.76Z"/><path d="M4.52,10.88l11,6a1,1,0,0,0,1,0l11-6a1,1,0,0,0,0-1.76l-11-6a1,1,0,0,0-1,0l-11,6a1,1,0,0,0,0,1.76Z"/><path d="M27.48,15.12,25.42,14l-8.94,4.88a1,1,0,0,1-1,0L8.67,15.14h0L6.58,14,4.52,15.12a1,1,0,0,0,0,1.76l11,6a1,1,0,0,0,1,0l11-6a1,1,0,0,0,0-1.76Z"/></g></svg>