<svg xmlns="http://www.w3.org/2000/svg" data-name="Layer 1" viewBox="0 0 100 125" x="0px" y="0px"><defs><style>.cls-1{fill-rule:evenodd;}</style></defs><path stroke="white" fill="white" class="cls-1" d="M21.818,37.206a38.545,38.545,0,0,0,1.01,6.712,30.886,30.886,0,0,0,2.088,5.911l.013.028C29.11,57.533,33.2,64.646,37.445,71.641c3.931,6.47,8.021,12.872,12.473,19.554C54.37,84.513,58.46,78.111,62.391,71.64c4.253-7,8.345-14.124,12.53-21.811A34.25,34.25,0,0,0,77.144,43.7a35,35,0,0,0,1.038-6.494l0-.031a28.514,28.514,0,0,0-3.372-14.631,28.166,28.166,0,0,0-49.624,0,28.5,28.5,0,0,0-3.37,14.662Zm38.945-2.877a10.762,10.762,0,1,1-3.152-7.611,10.731,10.731,0,0,1,3.152,7.611ZM59.539,24.79A13.489,13.489,0,1,1,50,20.839a13.447,13.447,0,0,1,9.539,3.951ZM20.186,44.568A41.265,41.265,0,0,1,19.1,37.377v-.032a31.23,31.23,0,0,1,3.69-16.09,30.891,30.891,0,0,1,54.418,0A31.22,31.22,0,0,1,80.9,37.276l0,.1a37.748,37.748,0,0,1-1.124,7A36.857,36.857,0,0,1,77.381,51h0l-.033.065c-4.2,7.721-8.327,14.9-12.631,21.983S55.944,87.093,51.06,94.378a1.36,1.36,0,0,1-2.272.019c-4.889-7.291-9.357-14.256-13.666-21.35-4.286-7.057-8.394-14.2-12.579-21.889A1.337,1.337,0,0,1,22.455,51,33.633,33.633,0,0,1,20.186,44.568Z"/></svg>