<svg xmlns="http://www.w3.org/2000/svg" version="1.1" viewBox="-5.0 -10.0 110.0 135.0">
 <g>
  <path d="m47.539 63.379c6.0742 0.015625 11.832-2.7148 15.664-7.4297 0.32812-0.38672 0.63672-0.78516 0.92188-1.2031 2.3906-3.4023 3.6758-7.4609 3.6758-11.617 0-4.1602-1.2812-8.2188-3.6719-11.621-0.28125-0.41016-0.58594-0.80859-0.91016-1.1875-3.8203-4.7148-9.5703-7.4531-15.637-7.4492-0.011719 0-0.023437-0.003906-0.035156-0.003906s-0.019531 0.003906-0.03125 0.003906h-0.003906c-6.0664-0.007813-11.809 2.7227-15.633 7.4297-0.33203 0.38672-0.64062 0.78516-0.92578 1.2031-2.3867 3.4062-3.6641 7.4609-3.6641 11.617 0 4.1602 1.2773 8.2148 3.6602 11.621 0.28516 0.41016 0.58594 0.80469 0.91016 1.1836 3.832 4.7266 9.5977 7.4688 15.68 7.4531zm-18.25-20.262v0.003906c0-1.8359 0.27344-3.6641 0.82031-5.418h7.8945c-0.47656 3.5977-0.47656 7.2422 0 10.836h-7.8984c-0.54297-1.7539-0.81641-3.582-0.81641-5.418zm10.359 0-0.003907 0.003906c0-1.8125 0.125-3.6211 0.37109-5.418h15.055c0.49609 3.5977 0.49609 7.2422 0 10.836h-15.051c-0.25-1.793-0.375-3.6055-0.375-5.418zm7.875-18.25h0.050781c3.1328 0.027343 5.9023 4.5352 7.1562 10.836h-14.371c1.2539-6.3008 4.0234-10.809 7.1602-10.832zm18.281 18.25-0.003907 0.003906c0 1.8359-0.27734 3.6641-0.82031 5.418h-7.8945c0.47266-3.5938 0.47266-7.2383 0-10.836h7.8945c0.54297 1.7539 0.82031 3.582 0.82031 5.418zm-11.078 7.4219c-1.2578 6.3164-4.0391 10.836-7.1836 10.836s-5.9258-4.5195-7.1836-10.836zm7.7617 3.0586c-0.25391 0.37109-0.52734 0.72656-0.82031 1.0664-2.3555 2.9062-5.5469 5.0117-9.1445 6.0273 1.9375-2.2656 3.4375-5.8242 4.2461-10.152h7.4453c-0.47656 1.0742-1.0547 2.0977-1.7266 3.0586zm-0.80078-21.992c0.28516 0.33594 0.55469 0.6875 0.80469 1.0508 0.67187 0.95703 1.2461 1.9805 1.7188 3.0469h-7.4414c-0.80859-4.3203-2.3086-7.8789-4.2422-10.145h0.003906c3.6016 1.0273 6.7969 3.1367 9.1562 6.0469zm-29.094 1.0469c0.25391-0.37109 0.52734-0.72656 0.81641-1.0664 2.3555-2.9062 5.5547-5.0117 9.1523-6.0312-1.9336 2.2656-3.4336 5.8242-4.2422 10.148h-7.4453c0.47266-1.0703 1.0469-2.0938 1.7188-3.0508zm-1.7227 17.887h7.4453c0.8125 4.3281 2.3125 7.8906 4.25 10.152v0.003906c-3.6094-1.0234-6.8125-3.1367-9.1719-6.0508-0.28906-0.33594-0.55469-0.6875-0.80469-1.0508-0.67188-0.95703-1.2461-1.9805-1.7188-3.0547z"/>
  <path d="m68.145 28.688c-0.32031-0.44922-0.70312-0.97656-1.1328-1.4688l0.003906-0.003906c-1.0703-1.3086-2.2695-2.5078-3.5781-3.5781-0.42969-0.34375-1.0586-0.27734-1.4062 0.14844-0.34375 0.42578-0.28125 1.0547 0.14453 1.4023 1.2109 0.99219 2.3203 2.1016 3.3086 3.3164 0.39062 0.44922 0.72656 0.91016 1.0312 1.3359h-0.003906c2.7344 3.8906 4.1992 8.5273 4.1992 13.281s-1.4648 9.3945-4.1992 13.281c-0.32422 0.47266-0.67578 0.92969-1.0469 1.3633-3.8789 4.7578-9.4844 7.7812-15.59 8.4023-6.1016 0.62109-12.203-1.2109-16.957-5.0898-0.42969-0.34766-1.0586-0.28516-1.4102 0.14062-0.34766 0.42969-0.28516 1.0586 0.14453 1.4102 4.3125 3.5078 9.668 5.4883 15.227 5.6289v6.8789l-6.7188-0.003907c-0.55078 0-1 0.44922-1 1 0 0.55469 0.44922 1 1 1h15.438c0.55469 0 1-0.44531 1-1 0-0.55078-0.44531-1-1-1h-6.7188v-6.8867c7.0703-0.35547 13.652-3.6992 18.113-9.1914 0.41016-0.48047 0.79687-0.98047 1.1562-1.4961 2.9688-4.2305 4.5625-9.2695 4.5625-14.438 0-5.168-1.5938-10.207-4.5664-14.434z"/>
 </g>
<text x="0.0" y="117.5" font-size="5.0" font-weight="bold" font-family="Arbeit Regular, Helvetica, Arial-Unicode, Arial, Sans-serif" fill="#000000">Created by ennbe</text><text x="0.0" y="122.5" font-size="5.0" font-weight="bold" font-family="Arbeit Regular, Helvetica, Arial-Unicode, Arial, Sans-serif" fill="#000000">from Noun Project</text></svg>