<svg xmlns="http://www.w3.org/2000/svg" xmlns:xlink="http://www.w3.org/1999/xlink" version="1.1" x="0px" y="0px" viewBox="0 0 100 125" style="enable-background:new 0 0 100 100;" xml:space="preserve"><path d="M86.02,13.99C83.44,11.42,80.02,10,76.39,10c-3.64,0-7.06,1.42-9.63,3.99L50,30.74L33.24,13.99  c-5.31-5.31-13.95-5.31-19.26,0c-5.31,5.31-5.31,13.95,0,19.26L30.74,50L13.98,66.75c-5.31,5.31-5.31,13.95,0,19.26  c5.31,5.31,13.95,5.31,19.26,0L50,69.26l16.76,16.75c2.57,2.57,5.99,3.99,9.63,3.99c3.64,0,7.06-1.42,9.63-3.99  c5.31-5.31,5.31-13.95,0-19.26L69.26,50l16.75-16.75C91.33,27.94,91.33,19.3,86.02,13.99z"/><text x="0" y="115" fill="#000000" font-size="5px" font-weight="bold" font-family="'Helvetica Neue', Helvetica, Arial-Unicode, Arial, Sans-serif">Created by M. Tohirin</text><text x="0" y="120" fill="#000000" font-size="5px" font-weight="bold" font-family="'Helvetica Neue', Helvetica, Arial-Unicode, Arial, Sans-serif">from the Noun Project</text></svg>