<svg xmlns="http://www.w3.org/2000/svg" xmlns:xlink="http://www.w3.org/1999/xlink" xml:space="preserve" style="shape-rendering:geometricPrecision;text-rendering:geometricPrecision;image-rendering:optimizeQuality;" viewBox="0 0 6.82666 8.533325000000001" x="0px" y="0px" fill-rule="evenodd" clip-rule="evenodd"><defs><style type="text/css">
   
    .fil1 {fill:none}
    .fil0 {fill:black}
   
  </style></defs><g><g><g><g><path class="fil0" d="M5.17461 5.70572l-3.82614 0c-0.225307,0 -0.408598,-0.183291 -0.408598,-0.408602l0 -4.03519c0,-0.225311 0.183291,-0.408602 0.408598,-0.408602l3.82613 3.93701e-006c0.225319,0 0.40861,0.183295 0.40861,0.408602l0 4.03519c0,0.225303 -0.183291,0.408594 -0.408602,0.408594zm-3.82614 -4.74573c-0.166488,0 -0.301933,0.135445 -0.301933,0.301933l0 4.03519c0,0.166488 0.135445,0.301933 0.301933,0.301933l3.82613 0c0.166488,0 0.301941,-0.135445 0.301941,-0.301933l0 -4.03518c0,-0.166492 -0.135457,-0.301933 -0.301941,-0.301933l-3.82613 3.93701e-006 0 -1.5748e-005z"/></g><g><path class="fil0" d="M3.7152 5.70572l-2.36673 0c-0.225307,0 -0.408598,-0.183291 -0.408598,-0.408602l0 -1.5681c0,-0.0294606 0.023874,-0.0533346 0.0533307,-0.0533346l2.722 0c0.0294606,0 0.0533346,0.023874 0.0533346,0.0533346l0 1.92337c0,0.0294606 -0.023874,0.0533346 -0.0533346,0.0533346zm-2.66867 -1.92338l0 1.51478c0,0.166488 0.135445,0.301933 0.301933,0.301933l2.3134 -3.93701e-006 0 -1.8167 -2.61533 0z"/></g><g><path class="fil0" d="M1.90054 1.85895l-0.907339 0c-0.0294567,0 -0.0533307,-0.023874 -0.0533307,-0.0533346 0,-0.0294567 0.023874,-0.0533307 0.0533307,-0.0533307l0.854004 0 0 -0.845618c0,-0.0294567 0.023878,-0.0533346 0.0533346,-0.0533346 0.0294606,0 0.0533346,0.023878 0.0533346,0.0533346l0 0.898965c0,0.0294409 -0.023874,0.0533189 -0.0533346,0.0533189z"/></g><g><path class="fil0" d="M1.90054 1.85895c-0.0294567,0 -0.0533346,-0.023874 -0.0533346,-0.0533346l0 -0.898949c0,-0.0294567 0.023878,-0.0533346 0.0533346,-0.0533346 0.0294606,0 0.0533346,0.023878 0.0533346,0.0533346l0 0.898965c0,0.0294409 -0.023874,0.0533189 -0.0533346,0.0533189z"/></g><g><path class="fil0" d="M2.80787 1.85895c-0.0294606,0 -0.0533346,-0.023874 -0.0533346,-0.0533346l0 -0.898949c0,-0.0294567 0.023874,-0.0533346 0.0533346,-0.0533346 0.0294606,0 0.0533346,0.023878 0.0533346,0.0533346l0 0.898965c0,0.0294409 -0.023874,0.0533189 -0.0533346,0.0533189z"/></g><g><path class="fil0" d="M3.7152 1.85895c-0.0294606,0 -0.0533346,-0.023874 -0.0533346,-0.0533346l0 -0.898949c0,-0.0294567 0.023874,-0.0533346 0.0533346,-0.0533346 0.0294606,0 0.0533346,0.023878 0.0533346,0.0533346l0 0.898965c0,0.0294409 -0.023874,0.0533189 -0.0533346,0.0533189z"/></g><g><path class="fil0" d="M4.62254 1.85895c-0.0294606,0 -0.0533346,-0.023874 -0.0533346,-0.0533346l0 -0.898949c0,-0.0294567 0.023874,-0.0533346 0.0533346,-0.0533346 0.0294606,0 0.0533346,0.023878 0.0533346,0.0533346l0 0.898965c-1.1811e-005,0.0294409 -0.023874,0.0533189 -0.0533346,0.0533189z"/></g><g><path class="fil0" d="M4.62254 5.70572c-0.0294606,0 -0.0533346,-0.023874 -0.0533346,-0.0533346l0 -0.961685c0,-0.0294606 0.023874,-0.0533346 0.0533346,-0.0533346l0.907339 0c0.0294606,0 0.0533346,0.023874 0.0533346,0.0533346 0,0.0294606 -0.023874,0.0533346 -0.0533346,0.0533346l-0.854004 0 0 0.90835c0,0.0294606 -0.0238583,0.0533346 -0.0533346,0.0533346z"/></g><g><path class="fil0" d="M1.90054 2.82065c-0.0294567,0 -0.0533346,-0.023874 -0.0533346,-0.0533346l0 -0.961701c0,-0.0294606 0.023878,-0.0533346 0.0533346,-0.0533346l0.907339 7.87402e-006c0.0294606,0 0.0533346,0.023874 0.0533346,0.0533307 0,0.0294606 -0.023874,0.0533346 -0.0533346,0.0533346l-0.854004 0 0 0.908366c0,0.0294567 -0.023874,0.0533307 -0.0533346,0.0533307z"/></g><g><path class="fil0" d="M2.80788 2.82065c-0.0294606,0 -0.0533346,-0.023874 -0.0533346,-0.0533346l0 -0.961701c0,-0.0294606 0.023874,-0.0533346 0.0533346,-0.0533346l0.907323 7.87402e-006c0.0294606,0 0.0533346,0.023874 0.0533346,0.0533307 0,0.0294606 -0.023874,0.0533346 -0.0533346,0.0533346l-0.853988 0 0 0.908366c0,0.0294567 -0.023874,0.0533307 -0.0533346,0.0533307z"/></g><g><path class="fil0" d="M3.7152 2.82065c-0.0294606,0 -0.0533346,-0.023874 -0.0533346,-0.0533346l0 -0.961701c0,-0.0294606 0.023874,-0.0533346 0.0533346,-0.0533346l0.907339 7.87402e-006c0.0294606,0 0.0533346,0.023874 0.0533346,0.0533307 0,0.0294606 -0.023874,0.0533346 -0.0533346,0.0533346l-0.854004 0 0 0.908366c0,0.0294567 -0.023874,0.0533307 -0.0533346,0.0533307z"/></g><g><path class="fil0" d="M4.62254 2.82065c-0.0294606,0 -0.0533346,-0.023874 -0.0533346,-0.0533346l0 -0.961701c0,-0.0294606 0.023874,-0.0533346 0.0533346,-0.0533346l0.907339 7.87402e-006c0.0294606,0 0.0533346,0.023874 0.0533346,0.0533307 0,0.0294606 -0.023874,0.0533346 -0.0533346,0.0533346l-0.854004 0 0 0.908366c0,0.0294567 -0.0238583,0.0533307 -0.0533346,0.0533307z"/></g><g><path class="fil0" d="M0.993205 3.78233c-0.0294567,0 -0.0533307,-0.023874 -0.0533307,-0.0533346l0 -0.961685c0,-0.0294567 0.023874,-0.0533307 0.0533307,-0.0533307l0.907339 -7.87402e-006c0.0294606,0 0.0533346,0.023874 0.0533346,0.0533346 0,0.0294606 -0.023874,0.0533346 -0.0533346,0.0533346l-0.854004 0 0 0.90835c0,0.0294764 -0.023874,0.0533386 -0.0533346,0.0533386z"/></g><g><path class="fil0" d="M1.90054 3.78233c-0.0294567,0 -0.0533346,-0.023874 -0.0533346,-0.0533346l0 -0.961685c0,-0.0294567 0.023878,-0.0533307 0.0533346,-0.0533307l0.907339 -7.87402e-006c0.0294606,0 0.0533346,0.023874 0.0533346,0.0533346 0,0.0294606 -0.023874,0.0533346 -0.0533346,0.0533346l-0.854004 0 0 0.90835c0,0.0294764 -0.023874,0.0533386 -0.0533346,0.0533386z"/></g><g><path class="fil0" d="M2.80788 3.78233c-0.0294606,0 -0.0533346,-0.023874 -0.0533346,-0.0533346l0 -0.961685c0,-0.0294567 0.023874,-0.0533307 0.0533346,-0.0533307l0.907323 -7.87402e-006c0.0294606,0 0.0533346,0.023874 0.0533346,0.0533346 0,0.0294606 -0.023874,0.0533346 -0.0533346,0.0533346l-0.853988 0 0 0.90835c0,0.0294764 -0.023874,0.0533386 -0.0533346,0.0533386z"/></g><g><path class="fil0" d="M3.7152 3.78233c-0.0294606,0 -0.0533346,-0.023874 -0.0533346,-0.0533346l0 -0.961685c0,-0.0294567 0.023874,-0.0533307 0.0533346,-0.0533307l0.907339 -7.87402e-006c0.0294606,0 0.0533346,0.023874 0.0533346,0.0533346 0,0.0294606 -0.023874,0.0533346 -0.0533346,0.0533346l-0.854004 0 0 0.90835c0,0.0294764 -0.023874,0.0533386 -0.0533346,0.0533386z"/></g><g><path class="fil0" d="M4.62254 3.78233c-0.0294606,0 -0.0533346,-0.023874 -0.0533346,-0.0533346l0 -0.961685c0,-0.0294567 0.023874,-0.0533307 0.0533346,-0.0533307l0.907339 -7.87402e-006c0.0294606,0 0.0533346,0.023874 0.0533346,0.0533346 0,0.0294606 -0.023874,0.0533346 -0.0533346,0.0533346l-0.854004 0 0 0.90835c0,0.0294764 -0.0238583,0.0533386 -0.0533346,0.0533386z"/></g><g><path class="fil0" d="M3.7152 4.74403c-0.0294606,0 -0.0533346,-0.023874 -0.0533346,-0.0533346l0 -0.961685c0,-0.0294606 0.023874,-0.0533346 0.0533346,-0.0533346l0.907339 0c0.0294606,0 0.0533346,0.023874 0.0533346,0.0533346 0,0.0294606 -0.023874,0.0533346 -0.0533346,0.0533346l-0.854004 0 0 0.90835c0,0.0294606 -0.023874,0.0533346 -0.0533346,0.0533346z"/></g><g><path class="fil0" d="M4.62254 4.74403c-0.0294606,0 -0.0533346,-0.023874 -0.0533346,-0.0533346l0 -0.961685c0,-0.0294606 0.023874,-0.0533346 0.0533346,-0.0533346l0.907339 0c0.0294606,0 0.0533346,0.023874 0.0533346,0.0533346 0,0.0294606 -0.023874,0.0533346 -0.0533346,0.0533346l-0.854004 0 0 0.90835c0,0.0294606 -0.0238583,0.0533346 -0.0533346,0.0533346z"/></g><g><path class="fil0" d="M4.62254 4.74403l-0.907339 0c-0.0294606,0 -0.0533346,-0.023874 -0.0533346,-0.0533346 0,-0.0294606 0.023874,-0.0533346 0.0533346,-0.0533346l0.907339 0c0.0294606,0 0.0533346,0.023874 0.0533346,0.0533346 0,0.0294606 -0.0238583,0.0533346 -0.0533346,0.0533346z"/></g><g><path class="fil0" d="M3.19047 4.21635l-1.67251 0c-0.0294606,0 -0.0533346,-0.023874 -0.0533346,-0.0533307 0,-0.0294606 0.023874,-0.0533346 0.0533346,-0.0533346l1.67251 0c0.0294567,0 0.0533307,0.023874 0.0533307,0.0533346 0,0.0294567 -0.023874,0.0533307 -0.0533307,0.0533307z"/></g><g><path class="fil0" d="M3.19047 4.74403l-1.67251 0c-0.0294606,0 -0.0533346,-0.023874 -0.0533346,-0.0533346 0,-0.0294606 0.023874,-0.0533346 0.0533346,-0.0533346l1.67251 0c0.0294567,0 0.0533307,0.023874 0.0533307,0.0533346 0,0.0294606 -0.023874,0.0533346 -0.0533307,0.0533346z"/></g><g><path class="fil0" d="M3.19047 5.2717l-1.67251 0c-0.0294606,0 -0.0533346,-0.023874 -0.0533346,-0.0533307 0,-0.0294606 0.023874,-0.0533346 0.0533346,-0.0533346l1.67251 0c0.0294567,0 0.0533307,0.023874 0.0533307,0.0533346 0,0.0294567 -0.023874,0.0533307 -0.0533307,0.0533307z"/></g><g><path class="fil0" d="M4.69364 5.97333l-2.86419 0c-0.0294606,0 -0.0533346,-0.023874 -0.0533346,-0.0533307 0,-0.0294606 0.023874,-0.0533346 0.0533346,-0.0533346l2.86419 0c0.0294606,0 0.0533346,0.023874 0.0533346,0.0533346 0,0.0294567 -0.023874,0.0533307 -0.0533346,0.0533307z"/></g><g><path class="fil0" d="M5.83345 4.76493c-0.0294567,0 -0.0533346,-0.023874 -0.0533346,-0.0533346l0 -2.86418c0,-0.0294606 0.023878,-0.0533346 0.0533346,-0.0533346 0.0294606,0 0.0533346,0.023874 0.0533346,0.0533346l0 2.86418c0,0.0294764 -0.023874,0.0533346 -0.0533346,0.0533346z"/></g></g></g></g><rect class="fil1" width="6.82666" height="6.82666"/></svg>